<svg width="400" height="300" viewBox="0 0 400 300" fill="none" xmlns="http://www.w3.org/2000/svg">
  <!-- Background circle -->
  <circle cx="200" cy="150" r="120" fill="url(#grad1)" opacity="0.1"/>
  
  <!-- Team collaboration illustration -->
  <!-- Person 1 -->
  <circle cx="160" cy="120" r="20" fill="url(#grad2)"/>
  <rect x="150" y="140" width="20" height="40" rx="10" fill="url(#grad2)"/>
  
  <!-- Person 2 -->
  <circle cx="240" cy="120" r="20" fill="url(#grad3)"/>
  <rect x="230" y="140" width="20" height="40" rx="10" fill="url(#grad3)"/>
  
  <!-- Handshake/connection between people -->
  <path d="M180 150 Q200 140 220 150" stroke="url(#grad4)" stroke-width="3" fill="none"/>
  
  <!-- Document/project icon -->
  <rect x="180" y="190" width="40" height="50" rx="4" fill="white" stroke="url(#grad1)" stroke-width="2"/>
  <line x1="188" y1="205" x2="212" y2="205" stroke="url(#grad1)" stroke-width="2"/>
  <line x1="188" y1="215" x2="212" y2="215" stroke="url(#grad1)" stroke-width="2"/>
  <line x1="188" y1="225" x2="205" y2="225" stroke="url(#grad1)" stroke-width="2"/>
  
  <!-- Success checkmark -->
  <circle cx="320" cy="100" r="16" fill="url(#grad5)"/>
  <path d="M312 100 L318 106 L328 94" stroke="white" stroke-width="3" fill="none" stroke-linecap="round"/>
  
  <!-- Growth arrow -->
  <path d="M80 200 Q100 180 120 200 Q140 220 160 200" stroke="url(#grad6)" stroke-width="3" fill="none"/>
  <polygon points="155,195 165,200 155,205" fill="url(#grad6)"/>
  
  <!-- Floating elements -->
  <circle cx="100" cy="100" r="4" fill="url(#grad2)" opacity="0.6"/>
  <circle cx="320" cy="180" r="3" fill="url(#grad3)" opacity="0.6"/>
  <circle cx="80" cy="160" r="5" fill="url(#grad5)" opacity="0.6"/>
  
  <!-- Gradients -->
  <defs>
    <linearGradient id="grad1" x1="0%" y1="0%" x2="100%" y2="100%">
      <stop offset="0%" style="stop-color:#6366f1;stop-opacity:1" />
      <stop offset="100%" style="stop-color:#8b5cf6;stop-opacity:1" />
    </linearGradient>
    <linearGradient id="grad2" x1="0%" y1="0%" x2="100%" y2="100%">
      <stop offset="0%" style="stop-color:#3b82f6;stop-opacity:1" />
      <stop offset="100%" style="stop-color:#6366f1;stop-opacity:1" />
    </linearGradient>
    <linearGradient id="grad3" x1="0%" y1="0%" x2="100%" y2="100%">
      <stop offset="0%" style="stop-color:#8b5cf6;stop-opacity:1" />
      <stop offset="100%" style="stop-color:#a855f7;stop-opacity:1" />
    </linearGradient>
    <linearGradient id="grad4" x1="0%" y1="0%" x2="100%" y2="100%">
      <stop offset="0%" style="stop-color:#6366f1;stop-opacity:1" />
      <stop offset="100%" style="stop-color:#8b5cf6;stop-opacity:1" />
    </linearGradient>
    <linearGradient id="grad5" x1="0%" y1="0%" x2="100%" y2="100%">
      <stop offset="0%" style="stop-color:#10b981;stop-opacity:1" />
      <stop offset="100%" style="stop-color:#059669;stop-opacity:1" />
    </linearGradient>
    <linearGradient id="grad6" x1="0%" y1="0%" x2="100%" y2="100%">
      <stop offset="0%" style="stop-color:#f59e0b;stop-opacity:1" />
      <stop offset="100%" style="stop-color:#d97706;stop-opacity:1" />
    </linearGradient>
  </defs>
</svg>